<svg width="382" height="69" xmlns="http://www.w3.org/2000/svg" xmlns:xlink="http://www.w3.org/1999/xlink" xml:space="preserve" overflow="hidden"><defs><radialGradient cx="37.3745" cy="117.115" r="169.613" gradientUnits="userSpaceOnUse" spreadMethod="pad" id="fill0" gradientTransform="matrix(0.861181 0 0 0.861181 -1.78605 -14.2618)"><stop offset="0" stop-color="#E07332"/><stop offset="0.0896" stop-color="#DF6E31"/><stop offset="0.2177" stop-color="#DB5D2C"/><stop offset="0.2584" stop-color="#DA562A"/><stop offset="0.366" stop-color="#D33935"/><stop offset="0.4643" stop-color="#CE1D3A"/><stop offset="0.5334" stop-color="#CD0E3C"/><stop offset="0.5913" stop-color="#C21644"/><stop offset="0.7442" stop-color="#A62056"/><stop offset="1" stop-color="#A62056"/></radialGradient></defs><g transform="translate(-272 -120)"><path d="M151.583 50.0617 158.87 50.0617 158.87 48.7939 150.155 48.7939 150.155 46.7675C152.551 46.5579 154.717 46.2484 156.783 45.8292L157.073 45.7693 156.364 44.4516 156.205 44.4816C151.473 45.4498 146.651 45.919 141.88 45.8991L141.59 45.8991 141.97 47.2567 142.139 47.2567C144.465 47.2167 146.711 47.0969 148.808 46.8973L148.808 48.7939 140.093 48.7939 140.093 50.0617 147.34 50.0617C146.562 50.8803 145.563 51.6789 144.355 52.4475 143.487 53.0165 142.688 53.4657 141.93 53.8351 141.181 54.2144 140.412 54.5338 139.654 54.8033L139.424 54.8832 140.023 56.111 140.213 56.0412C141.301 55.6419 142.429 55.1028 143.577 54.454L143.577 64.2667 144.924 64.2667 144.924 62.8591 154.118 62.8591 154.118 64.2667 155.466 64.2667 155.466 54.454 143.567 54.454C144.176 54.1046 144.795 53.7153 145.414 53.296 146.132 52.7969 146.821 52.2479 147.46 51.6589 147.979 51.1997 148.418 50.7605 148.798 50.3312L148.798 54.1345 150.145 54.1345 150.145 50.3312C151.942 52.3577 154.717 54.2244 158.381 55.8615L158.52 55.9214 159.609 54.7435 159.319 54.6237C155.895 53.2561 153.29 51.7188 151.583 50.0617ZM144.924 57.9478 144.924 55.7317 154.118 55.7317 154.118 57.9478 144.924 57.9478ZM154.118 59.2056 154.118 61.5914 144.924 61.5914 144.924 59.2056 154.118 59.2056Z" transform="matrix(1 0 0 1.00256 253.069 90.581)"/><path d="M169.321 49.0235 169.501 49.1932 170.34 48.0752 170.2 47.9454C169.182 46.9971 168.094 46.1486 166.856 45.35L166.686 45.2402 165.917 46.2684 166.107 46.3982C167.165 47.1069 168.253 47.9954 169.321 49.0235Z" transform="matrix(1 0 0 1.00256 253.069 90.581)"/><path d="M180.322 52.6571 184.734 52.6571 184.734 51.3894 179.993 51.3894 179.993 48.744 183.646 48.744 183.646 47.4763 179.993 47.4763 179.993 44.3118 178.645 44.3118 178.645 47.4763 175.191 47.4763 175.191 44.3118 173.843 44.3118 173.843 47.4763 170.759 47.4763 170.759 48.744 173.843 48.744 173.843 51.3894 169.531 51.3894 169.531 52.6571 173.674 52.6571C173.354 53.276 172.945 53.9249 172.446 54.6037 171.697 55.562 170.769 56.4504 169.681 57.2391L169.471 57.3888 170.469 58.3571 170.619 58.2373C171.258 57.7481 171.767 57.2989 172.236 56.8398 172.576 56.5103 172.915 56.151 173.244 55.7517L173.244 61.3817C173.244 61.821 173.284 62.1404 173.384 62.4299 173.474 62.6994 173.634 62.909 173.863 63.0488 173.973 63.2085 174.313 63.3283 175.57 63.4082 176.688 63.478 178.266 63.518 180.112 63.518 181.071 63.518 181.779 63.4581 182.298 63.3183 182.828 63.1786 183.157 62.919 183.237 62.5896 183.287 62.4898 183.317 62.3101 183.397 61.7611L183.407 61.7012C183.446 61.252 183.506 60.6131 183.576 59.7446L183.586 59.5949 182.159 58.8961 182.139 59.2255C182.049 60.8527 181.969 61.6313 181.949 61.7012 181.829 61.9108 181.42 62.1604 180.122 62.1604 175.65 62.1604 174.882 61.9807 174.772 61.9008 174.702 61.831 174.662 61.7711 174.632 61.6812 174.612 61.6313 174.582 61.5215 174.602 61.3119L174.602 59.1956 180.751 59.1956 180.751 55.1228C181.67 56.0312 182.748 56.8897 183.986 57.6783L184.145 57.7781 185.193 56.6102 184.954 56.4804C182.917 55.3424 181.36 54.0547 180.322 52.6571ZM178.635 48.744 178.635 51.3894 175.181 51.3894 175.181 48.744 178.635 48.744ZM174.582 57.9478 174.582 55.8116 179.374 55.8116 179.374 57.9478 174.582 57.9478ZM174.143 54.5438C174.522 53.9548 174.872 53.326 175.171 52.6671L178.735 52.6671C179.144 53.316 179.623 53.9449 180.162 54.5438L174.143 54.5438Z" transform="matrix(1 0 0 1.00256 253.069 90.581)"/><path d="M169.82 55.6718 168.692 54.9032 168.603 55.1927C167.774 58.0277 166.596 60.663 165.119 63.0288L165.009 63.2085 166.227 64.067 166.347 63.8574C167.125 62.4399 167.764 61.1322 168.313 59.8644 168.882 58.5068 169.371 57.1492 169.771 55.8415L169.82 55.6718Z" transform="matrix(1 0 0 1.00256 253.069 90.581)"/><path d="M166.796 52.3477C167.405 52.8867 167.974 53.4657 168.403 53.9049L168.583 54.0846 169.431 52.9866 169.301 52.8468C168.233 51.7388 167.105 50.7705 165.947 49.9918L165.778 49.872 165.009 50.8703 165.179 51.0001C165.718 51.4393 166.257 51.8885 166.796 52.3477Z" transform="matrix(1 0 0 1.00256 253.069 90.581)"/><path d="M209.201 59.7247C209.121 60.4833 209.061 61.0723 209.001 61.5115 208.922 61.9707 208.852 62.3101 208.822 62.4399 208.792 62.5098 208.702 62.6894 208.602 62.6894 208.472 62.6894 208.303 62.5696 208.113 62.3301 207.883 62.0406 207.634 61.5914 207.364 60.9924 207.175 60.663 207.025 60.3236 206.915 59.9543 206.765 59.5849 206.656 59.2056 206.566 58.8263L206.576 58.8163C207.604 57.3588 208.472 54.9231 209.161 51.569L209.201 51.3694 207.774 51.01 207.734 51.2396C207.484 52.5274 207.195 53.6554 206.845 54.7035 206.586 55.5021 206.316 56.2109 206.037 56.8098 205.887 56.2009 205.767 55.562 205.677 54.8632 205.537 54.1345 205.428 53.316 205.338 52.3078 205.258 51.4493 205.198 50.5608 205.158 49.5925L210.169 49.5925 210.169 48.3148 208.123 48.3148 209.151 47.606 209.061 47.4363C208.802 46.9372 208.492 46.4581 208.203 45.9889 207.943 45.5896 207.624 45.1703 207.215 44.6512L207.085 44.4915 205.987 45.2402 206.116 45.4199C206.496 45.939 206.785 46.3582 207.065 46.7875 207.374 47.2666 207.624 47.7658 207.843 48.195L207.893 48.3048 205.088 48.3048C205.018 47.1968 204.998 45.939 205.018 44.4616L205.018 44.242 203.581 44.242 203.581 44.4616C203.561 45.909 203.581 47.1668 203.651 48.3048L197.522 48.3048 197.522 54.4739C197.502 55.3723 197.442 56.2208 197.342 57.0194L197.152 55.9014 196.873 56.0611C196.244 56.4305 195.545 56.7699 194.776 57.0793L194.776 51.579 197.202 51.579 197.202 50.3113 194.776 50.3113 194.776 44.9108 193.429 44.9108 193.429 50.3113 190.853 50.3113 190.853 51.579 193.429 51.579 193.429 57.6184C193.05 57.7781 192.63 57.9278 192.191 58.0676 191.712 58.2373 191.203 58.407 190.704 58.5268L190.434 58.5967 191.143 59.9143 191.313 59.8644C192.081 59.6348 192.96 59.2954 194.078 58.8163 194.956 58.4569 195.934 58.0077 197.242 57.3688L197.302 57.3389C197.302 57.3688 197.292 57.3988 197.292 57.4387 197.142 58.3072 196.933 59.0658 196.673 59.6847 196.384 60.3436 196.034 60.9425 195.635 61.4716 195.226 62.0007 194.776 62.4698 194.257 62.929L194.098 63.0688 194.966 64.1469 195.136 63.9971C195.685 63.5379 196.174 63.0288 196.653 62.4299 197.122 61.821 197.522 61.1621 197.851 60.4733 198.51 59.0359 198.849 57.0693 198.869 54.6237L198.869 53.6554 201.824 53.6554C201.754 55.0928 201.694 56.0212 201.624 56.7299 201.535 57.5984 201.455 58.2073 201.375 58.5068 201.285 58.7863 201.105 59.1257 200.776 59.1257 200.626 59.1357 200.387 59.1357 200.037 59.0459 199.708 58.976 199.358 58.8762 198.969 58.7164L198.67 58.5967 198.67 60.0741 198.809 60.124C199.229 60.2737 199.658 60.3935 200.067 60.4733 200.407 60.5532 200.736 60.5931 200.956 60.5632 201.305 60.5931 201.624 60.4733 201.854 60.2438 202.084 60.0541 202.293 59.7546 202.493 59.2954 202.643 58.8861 202.772 58.1774 202.912 56.9695 203.012 55.9613 203.092 54.6237 203.192 52.6172L203.202 52.3876 198.879 52.3876 198.879 49.5925 203.731 49.5925C203.86 51.7986 204.09 53.8051 204.419 55.552 204.499 56.0611 204.589 56.6102 204.719 57.1193 204.819 57.5984 204.939 58.0376 205.068 58.4469 204.04 59.9043 202.653 61.232 200.846 62.4898L200.656 62.6196 201.495 63.7076 201.664 63.5978C203.242 62.5597 204.529 61.4217 205.587 60.1539 205.827 60.8627 206.107 61.4916 206.436 62.0406 207.205 63.3982 207.913 64.067 208.602 64.067 209.061 64.067 209.451 63.8873 209.77 63.508 209.91 63.2485 210.04 62.8691 210.169 62.35 210.299 61.8409 210.409 61.1921 210.499 60.3835L210.509 60.2637 209.251 59.2555 209.201 59.7247Z" transform="matrix(1 0 0 1.00256 253.069 90.581)"/><path d="M227.339 47.1069 227.239 46.9372C226.96 46.4481 226.62 45.9589 226.221 45.4498 225.892 45.0206 225.522 44.5814 225.063 44.0723L224.943 43.9225 223.755 44.7511 223.925 44.9407C224.624 45.7094 225.213 46.508 225.692 47.3166L215.979 47.3166 215.979 48.754 225.273 48.754 225.273 52.148 218.295 52.148 218.295 62.1304 219.812 62.1304 219.812 53.5855 225.263 53.5855 225.263 64.2766 226.78 64.2766 226.78 53.5755 232.49 53.5755 232.49 59.8245C232.49 60.2537 232.39 60.4135 232.34 60.4634 232.31 60.4933 232.26 60.5233 232.131 60.5233 231.292 60.5332 230.324 60.3236 229.216 59.8844L228.886 59.7546 229.016 61.242 229.146 61.2919C229.635 61.4916 230.144 61.6313 230.713 61.7311 231.182 61.831 231.661 61.8809 232.141 61.8809 233.368 61.8809 234.017 61.232 234.017 60.0042L234.017 52.148 226.79 52.148 226.79 48.754 236.084 48.754 236.084 47.3166 227.06 47.3166 227.339 47.1069Z" transform="matrix(1 0 0 1.00256 253.069 90.581)"/><path d="M258.544 60.6331C257.646 59.8145 256.877 58.946 256.208 57.9578 255.489 57.0294 254.88 56.0012 254.411 54.9032 253.952 53.875 253.623 52.8069 253.393 51.6589L260.85 51.6589 260.85 50.1416 251.566 50.1416C251.776 48.5943 251.956 46.7675 252.125 44.5514L252.145 44.3118 250.618 44.3118 250.598 44.5115C250.538 45.2402 250.478 45.929 250.418 46.5878 250.388 46.9372 250.358 47.2666 250.329 47.5961 250.239 48.4346 250.139 49.323 250.019 50.1416L242.313 50.1416 242.313 51.6589 249.77 51.6589C249.54 52.7769 249.27 53.8251 248.961 54.7934 248.622 55.7916 248.262 56.6102 247.893 57.2191 246.525 59.4551 244.379 61.3817 241.514 62.949L241.245 63.0987 242.412 64.1768 242.552 64.097C244.159 63.2185 245.487 62.3001 246.615 61.3019 247.753 60.2737 248.681 59.1457 249.36 57.9578 250.159 56.5902 250.828 54.4739 251.337 51.6689L251.776 51.6689C252.035 53.0165 252.405 54.2244 252.884 55.3424 253.443 56.6401 254.072 57.7481 254.791 58.7164 255.539 59.8644 256.348 60.8627 257.266 61.7511 258.145 62.6096 259.143 63.3982 260.341 64.1768L260.501 64.2866 261.649 62.939 261.429 62.8092C260.331 62.1504 259.373 61.4217 258.544 60.6331Z" transform="matrix(1 0 0 1.00256 253.069 90.581)"/><path d="M286.874 58.946 277.61 58.946C277.61 58.9261 277.6 58.9161 277.6 58.8961L277.59 58.8662C278.659 58.5467 279.607 58.2073 280.485 57.808 281.494 57.3788 282.382 56.9296 283.191 56.4305L283.29 56.3706 283.29 55.2825 270.962 55.2825 270.962 56.5503 280.405 56.5503C279.327 56.9995 278.189 57.3888 277.001 57.6982 276.982 57.6683 276.971 57.6383 276.952 57.6084L276.922 57.5585C276.862 57.4886 276.812 57.4087 276.782 57.3289L276.692 57.1193 275.514 57.6583 275.644 57.8679C275.704 57.9777 275.774 58.0876 275.834 58.1974 275.893 58.3072 275.963 58.427 276.023 58.5168 276.093 58.6665 276.163 58.8063 276.223 58.946L267.299 58.946 267.299 60.2138 276.602 60.2138 276.702 60.8926C276.742 61.2021 276.762 61.5215 276.782 61.801 276.762 62.1005 276.742 62.3201 276.702 62.4698 276.662 62.6295 276.622 62.6695 276.622 62.6695 276.622 62.6695 276.622 62.6695 276.622 62.6695 276.562 62.6994 276.492 62.7194 276.413 62.7393 276.353 62.7593 276.253 62.7793 276.163 62.7793 275.514 62.7793 274.805 62.6196 273.997 62.2802L273.667 62.1404 273.797 63.6477 273.937 63.6877C274.346 63.8174 274.755 63.9273 275.185 64.0171 275.654 64.087 276.053 64.1269 276.413 64.1269 276.892 64.1269 277.291 64.0071 277.62 63.7576 277.97 63.4581 278.139 62.8292 278.139 61.811L278.129 61.6912C278.11 61.4616 278.09 61.2021 278.05 60.9325L278.03 60.7828C278 60.6031 277.98 60.4135 277.95 60.2238L286.864 60.2238 286.864 58.946Z" transform="matrix(1 0 0 1.00256 253.069 90.581)"/><path d="M269.345 54.3142 284.858 54.3142 284.858 56.4604 286.185 56.4604 286.185 53.0464 284.818 53.0464 285.227 45.3101 280.116 45.3101 280.116 46.5779 283.819 46.5779 283.74 47.8855 280.026 47.8855 280.026 49.1733 283.67 49.1733 283.61 50.3911 279.687 50.3911 279.687 51.6589 283.54 51.6589 283.46 53.0464 279.257 53.0464 279.986 52.2479 279.807 52.0981C279.557 51.8885 279.287 51.6589 279.018 51.3994 278.818 51.2396 278.619 51.0599 278.419 50.8803 278.808 50.5009 279.178 50.0517 279.597 49.4827L279.697 49.343 279.247 48.8339 279.986 48.0153 279.807 47.8656C279.567 47.6659 279.347 47.4663 279.128 47.2666L279.078 47.2267C278.888 47.087 278.718 46.9372 278.539 46.7775 278.748 46.5679 278.968 46.3383 279.168 46.1087 279.447 45.8092 279.697 45.4798 279.926 45.1803L280.036 45.0406 279.228 44.1322 279.068 44.3518C278.659 44.9208 278.169 45.4698 277.59 46.0288 277.031 45.6295 276.413 45.2202 275.624 44.7012L275.464 44.6013 274.696 45.5097 274.905 45.6495C275.314 45.919 275.724 46.2085 276.153 46.508L276.632 46.8374C276.323 47.067 276.053 47.2367 275.784 47.3964 275.414 47.646 275.015 47.8456 274.616 48.0153L274.596 48.0253 274.596 47.9155 270.613 47.9155 270.603 47.1768C271.202 47.077 271.831 46.9173 272.509 46.7076 273.158 46.498 273.807 46.2385 274.466 45.929L274.686 45.8292 273.947 44.6313 273.777 44.7111C272.37 45.3301 270.912 45.7393 269.435 45.949L269.245 45.9789 269.415 53.0964 268.017 53.0964 268.017 56.5103 269.365 56.5103 269.365 54.3142ZM277.6 47.606C277.96 47.9554 278.339 48.3048 278.718 48.6642 278.339 49.1932 277.92 49.6724 277.461 50.1216 277.191 49.9419 276.932 49.7622 276.662 49.5726 276.343 49.353 276.033 49.1333 275.704 48.9137L275.604 48.8538C275.893 48.7041 276.193 48.5344 276.502 48.3547 276.922 48.1151 277.281 47.8656 277.6 47.606ZM277.471 51.7088C277.68 51.9184 277.9 52.1081 278.119 52.2978 278.359 52.5373 278.629 52.8069 278.888 53.0464L275.284 53.0464C276.033 52.717 276.752 52.2678 277.471 51.7088ZM274.576 48.4446 275.015 49.1533 275.195 49.0735C275.275 49.0335 275.354 48.9936 275.434 48.9537L274.785 49.7423 275.434 50.1915C275.774 50.4311 276.133 50.6706 276.492 50.9202 275.913 51.3594 275.255 51.7388 274.516 52.0682L274.286 52.168 274.855 53.0365 274.855 53.0365 270.683 53.0365 270.663 51.5591 274.745 51.5591 274.745 50.3113 270.643 50.3113 270.623 49.1733 274.596 49.1733 274.596 48.4446Z" transform="matrix(1 0 0 1.00256 253.069 90.581)"/><path d="M151.513 80.3583C151.333 80.7176 151.104 81.067 150.824 81.4164 150.544 81.7658 150.225 82.0752 149.876 82.3548 149.526 82.6343 149.137 82.8539 148.728 83.0236 148.318 83.1933 147.899 83.2731 147.46 83.2731 146.721 83.2731 146.022 83.1434 145.394 82.8838 144.765 82.6243 144.206 82.2549 143.746 81.7758 143.277 81.2966 142.908 80.6977 142.648 79.9889 142.379 79.2902 142.249 78.4816 142.249 77.6031 142.249 76.7147 142.389 75.9061 142.658 75.1974 142.928 74.4886 143.307 73.8797 143.776 73.3906 144.246 72.9014 144.805 72.5121 145.434 72.2526 146.062 71.983 146.751 71.8533 147.48 71.8533 148.318 71.8533 149.077 72.0929 149.716 72.552 150.365 73.0212 150.964 73.7799 151.493 74.8081L151.553 74.9179 152.691 74.1692 152.631 74.0793C152.361 73.6401 152.032 73.2109 151.663 72.8116 151.283 72.4023 150.844 72.0429 150.365 71.7335 149.886 71.424 149.337 71.1745 148.748 70.9848 148.159 70.7951 147.51 70.7053 146.811 70.7053 146.082 70.7053 145.394 70.7852 144.745 70.9549 144.106 71.1246 143.507 71.3641 142.958 71.6636 142.419 71.9731 141.92 72.3424 141.49 72.7617 141.061 73.1809 140.692 73.6601 140.392 74.1692 140.093 74.6783 139.863 75.2273 139.704 75.8163 139.544 76.3953 139.464 77.0042 139.464 77.6131 139.464 78.5315 139.644 79.4199 139.983 80.2385 140.333 81.067 140.822 81.7957 141.451 82.4146 142.079 83.0336 142.848 83.5327 143.727 83.892 144.605 84.2514 145.603 84.4411 146.681 84.4411 147.43 84.4411 148.119 84.3512 148.728 84.1616 149.337 83.9819 149.886 83.7223 150.375 83.4129 150.854 83.1034 151.293 82.7341 151.663 82.3348 152.032 81.9355 152.351 81.5063 152.621 81.067L152.681 80.9672 151.563 80.2585 151.513 80.3583Z" fill="#A40000" transform="matrix(1 0 0 1.00256 253.069 90.581)"/><path d="M155.096 74.3489 155.096 84.1316 157.293 84.1316 157.293 73.7499 156.604 73.7499Z" fill="#A40000" transform="matrix(1 0 0 1.00256 253.069 90.581)"/><path d="M157.063 69.3477C156.953 69.2379 156.813 69.148 156.664 69.0782 156.364 68.9484 155.995 68.9484 155.695 69.0782 155.546 69.1381 155.416 69.2279 155.296 69.3477 155.186 69.4575 155.096 69.5973 155.027 69.747 154.967 69.8967 154.927 70.0564 154.927 70.2261 154.927 70.3958 154.957 70.5556 155.027 70.7053 155.086 70.855 155.176 70.9848 155.296 71.1046 155.406 71.2144 155.546 71.3042 155.695 71.3741 155.845 71.434 156.005 71.4739 156.175 71.4739 156.344 71.4739 156.504 71.444 156.654 71.3741 156.803 71.3142 156.933 71.2244 157.053 71.1046 157.163 70.9948 157.253 70.855 157.323 70.7053 157.382 70.5556 157.422 70.3958 157.422 70.2261 157.422 70.0564 157.392 69.8967 157.323 69.747 157.263 69.5973 157.173 69.4675 157.063 69.3477Z" fill="#A40000" transform="matrix(1 0 0 1.00256 253.069 90.581)"/><path d="M165.039 82.3348C164.909 82.4845 164.759 82.6143 164.59 82.7241 164.31 82.8938 163.941 82.9238 163.661 82.804 163.542 82.7541 163.442 82.6842 163.362 82.6043 163.282 82.5145 163.212 82.4146 163.162 82.2949 163.112 82.1751 163.092 82.0553 163.092 81.9155L163.092 75.0077 165.308 75.0077 165.308 73.9296 163.092 73.9296 163.092 70.5456 162.414 70.5456 160.886 71.1345 160.886 73.9596 159.149 74.4387 159.149 75.0077 160.886 75.0077 160.886 81.9155C160.886 82.2649 160.926 82.5943 161.006 82.8838 161.086 83.1833 161.216 83.4428 161.385 83.6525 161.555 83.8721 161.775 84.0418 162.034 84.1616 162.294 84.2814 162.603 84.3412 162.953 84.3412 163.611 84.3412 164.18 84.2015 164.63 83.922 165.079 83.6425 165.448 83.2632 165.728 82.794L165.788 82.7041 165.119 82.2549 165.039 82.3348Z" fill="#A40000" transform="matrix(1 0 0 1.00256 253.069 90.581)"/><path d="M172.216 80.9872 168.463 73.9296 165.957 73.9296 171.108 83.5526 170.459 85.0001C170.38 85.1798 170.29 85.3694 170.17 85.5691 170.06 85.7687 169.93 85.9584 169.781 86.1281 169.641 86.2978 169.481 86.4376 169.311 86.5474 169.012 86.737 168.633 86.727 168.353 86.6572 168.223 86.6272 168.104 86.5873 167.994 86.5374 167.884 86.4875 167.784 86.4376 167.694 86.3876 167.594 86.3377 167.505 86.2878 167.425 86.2579L167.325 86.2179 166.417 88.2544 166.486 88.3043C166.646 88.434 166.846 88.5339 167.075 88.6037 167.305 88.6836 167.545 88.7135 167.794 88.7135 168.114 88.7135 168.453 88.6536 168.792 88.5339 169.132 88.4141 169.471 88.2344 169.791 87.9948 170.11 87.7552 170.409 87.4458 170.689 87.0864 170.968 86.727 171.218 86.2878 171.438 85.7987L176.599 73.9196 175.291 73.9196 172.216 80.9872Z" fill="#A40000" transform="matrix(1 0 0 1.00256 253.069 90.581)"/><path d="M191.343 79.4898C191.343 80.0289 191.253 80.538 191.073 80.9971 190.893 81.4663 190.634 81.8756 190.294 82.225 189.955 82.5744 189.546 82.8539 189.067 83.0635 188.587 83.2632 188.048 83.373 187.449 83.373 186.86 83.373 186.311 83.2731 185.832 83.0635 185.353 82.8639 184.934 82.5744 184.594 82.225 184.255 81.8756 183.995 81.4563 183.806 80.9971 183.626 80.528 183.526 80.0189 183.526 79.4898L183.526 70.9948 181.131 70.9948 181.131 79.4299C181.131 80.1187 181.25 80.7676 181.49 81.3765 181.729 81.9854 182.099 82.5145 182.568 82.9737 183.037 83.4229 183.636 83.7822 184.325 84.0418 185.024 84.3013 185.822 84.4311 186.731 84.4311 187.739 84.4311 188.617 84.3013 189.336 84.0418 190.065 83.7822 190.664 83.4229 191.133 82.9737 191.602 82.5245 191.951 81.9954 192.171 81.3964 192.391 80.8075 192.5 80.1586 192.5 79.4898L192.5 70.9948 191.323 70.9948 191.323 79.4898Z" fill="#A40000" transform="matrix(1 0 0 1.00256 253.069 90.581)"/><path d="M202.912 74.6683C202.673 74.3888 202.393 74.1592 202.084 73.9995 201.764 73.8398 201.425 73.7499 201.055 73.7499 200.377 73.7499 199.688 73.9196 199.029 74.259 198.44 74.5585 197.871 75.0077 197.312 75.5867L197.312 73.7499 196.633 73.7499 195.096 74.3389 195.096 84.1316 197.312 84.1316 197.312 76.6848C197.522 76.4851 197.731 76.3054 197.961 76.1457 198.19 75.976 198.43 75.8263 198.67 75.7065 198.909 75.5867 199.139 75.4869 199.368 75.417 199.838 75.2772 200.257 75.2872 200.586 75.437 200.766 75.5168 200.916 75.6366 201.045 75.7963 201.175 75.956 201.285 76.1557 201.355 76.3853 201.425 76.6249 201.465 76.9044 201.465 77.2238L201.465 84.1416 203.671 84.1416 203.671 76.8844C203.671 76.4552 203.601 76.0559 203.471 75.6765 203.331 75.2772 203.142 74.9478 202.912 74.6683Z" fill="#A40000" transform="matrix(1 0 0 1.00256 253.069 90.581)"/><path d="M206.606 74.3489 206.606 84.1316 208.792 84.1316 208.792 73.7499 208.113 73.7499Z" fill="#A40000" transform="matrix(1 0 0 1.00256 253.069 90.581)"/><path d="M208.572 69.3477C208.462 69.2379 208.323 69.148 208.173 69.0782 207.873 68.9484 207.504 68.9484 207.205 69.0782 207.055 69.1381 206.925 69.2279 206.805 69.3477 206.695 69.4575 206.606 69.5973 206.536 69.747 206.476 69.8967 206.436 70.0564 206.436 70.2261 206.436 70.3958 206.466 70.5556 206.536 70.7053 206.596 70.855 206.685 70.9848 206.805 71.1046 206.915 71.2144 207.055 71.3042 207.205 71.3741 207.354 71.434 207.514 71.4739 207.684 71.4739 207.853 71.4739 208.013 71.444 208.163 71.3741 208.313 71.3142 208.442 71.2244 208.562 71.1046 208.672 70.9948 208.762 70.855 208.832 70.7053 208.892 70.5556 208.932 70.3958 208.932 70.2261 208.932 70.0564 208.902 69.8967 208.832 69.747 208.772 69.5973 208.682 69.4675 208.572 69.3477Z" fill="#A40000" transform="matrix(1 0 0 1.00256 253.069 90.581)"/><path d="M215.789 81.3166 212.365 73.9995 212.336 73.9296 210.01 73.9296 214.791 84.1716 214.821 84.2314 215.65 84.2314 220.232 73.9296 219.094 73.9296Z" fill="#A40000" transform="matrix(1 0 0 1.00256 253.069 90.581)"/><path d="M229.715 80.2485C229.625 80.5479 229.475 80.8374 229.256 81.1169 229.036 81.3964 228.767 81.656 228.457 81.8756 228.148 82.0952 227.798 82.2749 227.409 82.4146 227.03 82.5544 226.62 82.6143 226.211 82.6143 225.722 82.6143 225.263 82.5045 224.853 82.2749 224.444 82.0553 224.085 81.7358 223.775 81.3366 223.476 80.9373 223.236 80.4481 223.067 79.8891 222.907 79.36 222.827 78.791 222.817 78.1721L230.244 78.1721 230.244 78.0623C230.244 77.4933 230.134 76.9443 229.905 76.4352 229.685 75.9161 229.365 75.4569 228.966 75.0576 228.567 74.6583 228.078 74.3489 227.529 74.1093 226.97 73.8697 226.351 73.7499 225.692 73.7499 224.943 73.7499 224.245 73.8897 223.636 74.1792 223.027 74.4687 222.488 74.858 222.058 75.3671 221.619 75.8662 221.28 76.4751 221.04 77.1639 220.801 77.8527 220.681 78.6114 220.681 79.4199 220.681 80.0987 220.811 80.7376 221.07 81.3366 221.33 81.9355 221.689 82.4646 222.138 82.9038 222.587 83.343 223.126 83.7024 223.725 83.9619 224.334 84.2215 224.983 84.3512 225.672 84.3512 226.201 84.3512 226.72 84.2514 227.229 84.0518 227.738 83.8521 228.217 83.5826 228.647 83.2432 229.076 82.9038 229.455 82.5045 229.785 82.0453 230.114 81.5861 230.344 81.087 230.493 80.5679L230.523 80.4781 229.745 80.1287 229.715 80.2485ZM222.837 77.134C222.867 76.8145 222.947 76.5151 223.067 76.2455 223.196 75.9361 223.376 75.6566 223.576 75.437 223.775 75.2074 224.015 75.0377 224.274 74.9079 224.843 74.6284 225.502 74.6783 226.041 74.9179 226.341 75.0476 226.6 75.2273 226.82 75.4569 227.04 75.6865 227.219 75.956 227.349 76.2655 227.459 76.545 227.529 76.8445 227.539 77.1639L222.837 77.134Z" fill="#A40000" transform="matrix(1 0 0 1.00256 253.069 90.581)"/><path d="M238.799 73.8697C238.19 73.7 237.531 73.71 236.912 73.9097 236.593 74.0095 236.283 74.1592 235.994 74.3489 235.704 74.5385 235.435 74.7582 235.195 75.0077 235.035 75.1774 234.886 75.3671 234.766 75.5567L234.536 73.7499 234.137 73.7499 232.61 74.3289 232.61 84.1316 234.816 84.1316 234.816 77.104C234.946 76.8345 235.095 76.5849 235.265 76.3853 235.435 76.1757 235.624 76.006 235.834 75.8762 236.034 75.7464 236.253 75.6366 236.483 75.5767 236.852 75.4669 237.242 75.4569 237.631 75.4968 237.781 75.5068 237.92 75.5368 238.06 75.5867 238.2 75.6366 238.34 75.6965 238.469 75.7764 238.599 75.8562 238.729 75.966 238.849 76.1058L238.979 76.2455 239.697 74.3189 239.627 74.269C239.368 74.0793 239.088 73.9496 238.799 73.8697Z" fill="#A40000" transform="matrix(1 0 0 1.00256 253.069 90.581)"/><path d="M246.805 79.2203C246.525 78.9807 246.206 78.7611 245.856 78.5814 245.507 78.4017 245.148 78.222 244.788 78.0723L243.73 77.6131C243.391 77.4634 243.081 77.3037 242.822 77.134 242.562 76.9643 242.353 76.7746 242.193 76.565 242.043 76.3653 241.963 76.1257 241.963 75.8562 241.963 75.6965 242.003 75.5368 242.093 75.397 242.183 75.2473 242.303 75.1175 242.452 75.0077 242.612 74.8979 242.802 74.8081 243.021 74.7382 243.241 74.6683 243.491 74.6384 243.77 74.6384 244.269 74.6384 244.748 74.7881 245.198 75.0776 245.647 75.3671 246.056 75.8163 246.425 76.4152L246.495 76.535 247.404 75.7165 247.334 75.6366C247.024 75.2473 246.735 74.9179 246.455 74.6683 246.176 74.4188 245.886 74.2291 245.607 74.0893 245.327 73.9596 245.028 73.8597 244.738 73.8198 244.449 73.7699 244.129 73.7499 243.8 73.7499 243.301 73.7499 242.822 73.8198 242.402 73.9695 241.973 74.1093 241.604 74.3189 241.294 74.5685 240.985 74.828 240.735 75.1375 240.556 75.4869 240.376 75.8462 240.286 76.2256 240.286 76.6448 240.286 77.0841 240.366 77.4734 240.526 77.8028 240.686 78.1322 240.895 78.4217 241.155 78.6712 241.414 78.9208 241.704 79.1304 242.033 79.3201 242.353 79.4998 242.682 79.6695 243.011 79.8292 243.341 79.9889 243.67 80.1387 243.99 80.2884 244.299 80.4381 244.579 80.5979 244.828 80.7676 245.068 80.9373 245.257 81.1369 245.407 81.3465 245.547 81.5562 245.617 81.8057 245.617 82.0852 245.617 82.2549 245.577 82.4246 245.497 82.5844 245.417 82.7441 245.297 82.8938 245.138 83.0236 244.978 83.1534 244.798 83.2532 244.579 83.333 244.139 83.4927 243.56 83.4728 243.111 83.353 242.882 83.2831 242.652 83.1833 242.432 83.0336 242.213 82.8838 241.993 82.6942 241.774 82.4646 241.554 82.235 241.324 81.9455 241.095 81.6161L241.025 81.5162 240.047 82.4047 240.107 82.4845C240.406 82.8838 240.725 83.2033 241.045 83.4528 241.364 83.7024 241.684 83.892 242.003 84.0318 242.323 84.1716 242.642 84.2614 242.962 84.3113 243.271 84.3612 243.58 84.3812 243.88 84.3812 244.529 84.3812 245.108 84.3013 245.587 84.1416 246.076 83.9819 246.485 83.7623 246.805 83.4828 247.134 83.2033 247.384 82.8639 247.543 82.4845 247.703 82.1052 247.783 81.6959 247.783 81.2567 247.783 80.8275 247.693 80.4381 247.523 80.1087 247.314 79.7593 247.084 79.4698 246.805 79.2203Z" fill="#A40000" transform="matrix(1 0 0 1.00256 253.069 90.581)"/><path d="M251.946 69.3477C251.836 69.2379 251.696 69.148 251.546 69.0782 251.247 68.9484 250.878 68.9484 250.578 69.0782 250.428 69.1381 250.299 69.2279 250.179 69.3477 250.069 69.4575 249.979 69.5973 249.909 69.747 249.849 69.8967 249.809 70.0564 249.809 70.2261 249.809 70.3958 249.839 70.5556 249.909 70.7053 249.969 70.855 250.059 70.9848 250.179 71.1046 250.289 71.2144 250.428 71.3042 250.578 71.3741 250.728 71.434 250.888 71.4739 251.057 71.4739 251.227 71.4739 251.387 71.444 251.536 71.3741 251.686 71.3142 251.816 71.2244 251.936 71.1046 252.045 70.9948 252.135 70.855 252.205 70.7053 252.265 70.5556 252.305 70.3958 252.305 70.2261 252.305 70.0564 252.275 69.8967 252.205 69.747 252.155 69.5973 252.065 69.4675 251.946 69.3477Z" fill="#A40000" transform="matrix(1 0 0 1.00256 253.069 90.581)"/><path d="M249.979 74.3489 249.979 84.1316 252.175 84.1316 252.175 73.7499 251.486 73.7499Z" fill="#A40000" transform="matrix(1 0 0 1.00256 253.069 90.581)"/><path d="M259.932 82.3348C259.802 82.4845 259.652 82.6143 259.482 82.7241 259.203 82.8938 258.834 82.9238 258.554 82.804 258.434 82.7541 258.334 82.6842 258.255 82.6043 258.175 82.5145 258.105 82.4146 258.055 82.2949 258.005 82.1751 257.985 82.0553 257.985 81.9255L257.985 75.0177 260.201 75.0177 260.201 73.9396 257.985 73.9396 257.985 70.5556 257.306 70.5556 255.779 71.1445 255.779 73.9695 254.042 74.4487 254.042 75.0177 255.779 75.0177 255.779 81.9255C255.779 82.2849 255.819 82.6043 255.899 82.8938 255.979 83.1933 256.108 83.4528 256.278 83.6624 256.448 83.8821 256.667 84.0518 256.927 84.1716 257.186 84.2913 257.496 84.3512 257.845 84.3512 258.504 84.3512 259.073 84.2115 259.522 83.932 259.971 83.6525 260.341 83.2731 260.62 82.804L260.67 82.7141 260.001 82.2649 259.932 82.3348Z" fill="#A40000" transform="matrix(1 0 0 1.00256 253.069 90.581)"/><path d="M267.099 80.9872 263.346 73.9296 260.84 73.9296 265.991 83.5526 265.342 85.0001C265.272 85.1698 265.172 85.3694 265.053 85.5691 264.943 85.7687 264.813 85.9584 264.663 86.1281 264.523 86.2978 264.364 86.4376 264.194 86.5474 264.024 86.6572 263.855 86.7071 263.675 86.7071 263.515 86.7071 263.366 86.6871 263.246 86.6572 263.116 86.6272 262.996 86.5873 262.886 86.5374 262.777 86.4875 262.677 86.4376 262.587 86.3876 262.487 86.3377 262.397 86.2878 262.317 86.2579L262.218 86.2179 261.309 88.2544 261.379 88.3043C261.539 88.434 261.738 88.5339 261.968 88.6037 262.198 88.6836 262.437 88.7135 262.687 88.7135 263.006 88.7135 263.346 88.6536 263.685 88.5339 264.024 88.4141 264.364 88.2344 264.683 87.9948 265.003 87.7552 265.302 87.4458 265.582 87.0864 265.861 86.727 266.111 86.2878 266.33 85.7987L271.491 73.9196 270.184 73.9196 267.099 80.9872Z" fill="#A40000" transform="matrix(1 0 0 1.00256 253.069 90.581)"/><path d="M285.197 75.1974C284.718 74.7482 284.149 74.3888 283.5 74.1293 282.851 73.8697 282.132 73.74 281.364 73.74 280.585 73.74 279.856 73.8797 279.208 74.1592 278.559 74.4387 277.98 74.828 277.511 75.3172 277.031 75.8063 276.662 76.3853 276.393 77.0441 276.123 77.703 275.993 78.4117 275.993 79.1604 275.993 79.8691 276.133 80.5479 276.393 81.1768 276.662 81.8057 277.041 82.3548 277.511 82.8239 277.99 83.2931 278.559 83.6624 279.208 83.932 279.856 84.2015 280.585 84.3412 281.364 84.3412 282.132 84.3412 282.861 84.1915 283.51 83.902 284.159 83.6125 284.728 83.2033 285.207 82.6942 285.686 82.1851 286.056 81.5861 286.325 80.9173 286.595 80.2385 286.724 79.5098 286.724 78.7511 286.724 78.0523 286.585 77.3935 286.315 76.7946 286.046 76.1856 285.676 75.6466 285.197 75.1974ZM282.751 83.1034C282.442 83.2931 282.102 83.3929 281.743 83.3929 281.224 83.3929 280.755 83.2632 280.346 82.9936 279.936 82.7241 279.587 82.3647 279.297 81.9055 279.008 81.4464 278.788 80.8973 278.639 80.2784 278.489 79.6495 278.409 78.9707 278.409 78.262 278.409 77.7728 278.479 77.3136 278.619 76.8844 278.758 76.4552 278.948 76.0758 279.178 75.7564 279.407 75.437 279.667 75.1874 279.966 75.0077 280.256 74.828 280.565 74.7382 280.875 74.7382 281.494 74.7382 282.023 74.868 282.452 75.1275 282.881 75.387 283.24 75.7464 283.5 76.1956 283.77 76.6448 283.969 77.1939 284.089 77.8028 284.209 78.4217 284.269 79.1005 284.269 79.8092 284.269 80.2984 284.209 80.7676 284.079 81.1968 283.949 81.636 283.77 82.0154 283.55 82.3448 283.33 82.6442 283.061 82.9138 282.751 83.1034Z" fill="#A40000" transform="matrix(1 0 0 1.00256 253.069 90.581)"/><path d="M296.088 70.0265C295.868 69.7769 295.609 69.5573 295.319 69.3876 295.03 69.2179 294.72 69.0882 294.381 68.9883 294.041 68.8985 293.692 68.8486 293.333 68.8486 292.804 68.8486 292.304 68.9584 291.835 69.168 291.376 69.3776 290.967 69.6771 290.617 70.0365 290.278 70.3958 289.999 70.8351 289.799 71.3142 289.599 71.8034 289.499 72.3324 289.499 72.8914L289.499 73.9296 287.423 73.9296 287.423 75.0077 289.499 75.0077 289.499 84.1316 291.716 84.1316 291.716 75.0077 294.371 75.0077 294.371 73.9296 291.716 73.9296 291.716 71.6936C291.716 71.454 291.745 71.2144 291.815 70.9848 291.875 70.7552 291.975 70.5556 292.095 70.3759 292.215 70.2062 292.354 70.0664 292.524 69.9566 292.684 69.8568 292.863 69.8069 293.053 69.8069 293.373 69.8069 293.632 69.8668 293.842 69.9966 294.051 70.1263 294.231 70.286 294.371 70.4957 294.511 70.7053 294.63 70.9449 294.73 71.1944 294.83 71.454 294.91 71.7235 294.98 71.9731L295.02 72.1328 296.667 70.9449 296.627 70.865C296.497 70.5556 296.317 70.2761 296.088 70.0265Z" fill="#A40000" transform="matrix(1 0 0 1.00256 253.069 90.581)"/><path d="M309.544 76.8744 303.285 76.8744 303.285 70.9948 300.889 70.9948 300.889 84.1316 303.285 84.1316 303.285 77.9326 309.544 77.9326 309.544 84.1316 311.94 84.1316 311.94 70.9948 309.544 70.9948Z" fill="#A40000" transform="matrix(1 0 0 1.00256 253.069 90.581)"/><path d="M323.28 75.1974C322.801 74.7482 322.232 74.3888 321.583 74.1293 320.934 73.8697 320.215 73.74 319.447 73.74 318.668 73.74 317.939 73.8797 317.29 74.1592 316.642 74.4387 316.063 74.828 315.593 75.3172 315.114 75.8063 314.745 76.3853 314.475 77.0441 314.206 77.703 314.076 78.4117 314.076 79.1604 314.076 79.8691 314.216 80.5479 314.475 81.1768 314.745 81.8057 315.124 82.3548 315.593 82.8239 316.073 83.2931 316.642 83.6624 317.29 83.932 317.939 84.2015 318.668 84.3412 319.447 84.3412 320.215 84.3412 320.944 84.1915 321.593 83.902 322.242 83.6125 322.811 83.2033 323.29 82.6942 323.769 82.1851 324.138 81.5861 324.408 80.9173 324.677 80.2385 324.807 79.5098 324.807 78.7511 324.807 78.0523 324.667 77.3935 324.398 76.7946 324.128 76.1856 323.749 75.6466 323.28 75.1974ZM320.834 83.1034C320.525 83.2931 320.185 83.3929 319.826 83.3929 319.307 83.3929 318.838 83.2632 318.428 82.9936 318.019 82.7241 317.67 82.3647 317.38 81.9055 317.091 81.4464 316.871 80.8973 316.721 80.2784 316.572 79.6495 316.492 78.9707 316.492 78.262 316.492 77.7728 316.562 77.3136 316.701 76.8844 316.841 76.4552 317.031 76.0758 317.26 75.7564 317.49 75.437 317.75 75.1874 318.049 75.0077 318.339 74.828 318.648 74.7382 318.957 74.7382 319.576 74.7382 320.105 74.868 320.535 75.1275 320.964 75.387 321.313 75.7464 321.583 76.1956 321.852 76.6448 322.052 77.1939 322.172 77.8028 322.292 78.4217 322.352 79.1005 322.352 79.8092 322.352 80.2984 322.292 80.7676 322.162 81.1968 322.032 81.636 321.852 82.0154 321.633 82.3448 321.413 82.6442 321.144 82.9138 320.834 83.1034Z" fill="#A40000" transform="matrix(1 0 0 1.00256 253.069 90.581)"/><path d="M334.7 74.6683C334.46 74.3888 334.181 74.1592 333.871 73.9995 333.552 73.8398 333.212 73.7499 332.843 73.7499 332.164 73.7499 331.475 73.9196 330.817 74.259 330.228 74.5585 329.659 75.0077 329.1 75.5867L329.1 73.7499 328.421 73.7499 326.883 74.3389 326.883 84.1316 329.1 84.1316 329.1 76.6848C329.299 76.4851 329.519 76.3054 329.738 76.1457 329.978 75.976 330.218 75.8263 330.447 75.7065 330.677 75.5867 330.916 75.4869 331.146 75.417 331.615 75.2772 332.034 75.2872 332.364 75.437 332.544 75.5168 332.693 75.6366 332.823 75.7963 332.953 75.956 333.063 76.1557 333.132 76.3853 333.202 76.6249 333.242 76.9044 333.242 77.2238L333.242 84.1416 335.448 84.1416 335.448 76.8844C335.448 76.4552 335.379 76.0459 335.249 75.6765 335.119 75.2772 334.939 74.9478 334.7 74.6683Z" fill="#A40000" transform="matrix(1 0 0 1.00256 253.069 90.581)"/><path d="M344.482 74.1991C344.283 74.1093 344.053 74.0394 343.804 73.9695 343.544 73.8997 343.275 73.8498 342.985 73.8098 342.696 73.7699 342.386 73.7499 342.087 73.7499 341.458 73.7499 340.869 73.8498 340.33 74.0394 339.791 74.2291 339.312 74.4986 338.912 74.828 338.503 75.1574 338.184 75.5567 337.954 76.006 337.724 76.4552 337.605 76.9343 337.605 77.4434 337.605 78.1322 337.804 78.7411 338.194 79.2702 338.533 79.7294 338.992 80.1087 339.571 80.3882 339.371 80.4781 339.192 80.5779 339.012 80.6977 338.763 80.8674 338.543 81.057 338.353 81.2567 338.164 81.4563 338.004 81.6759 337.894 81.9055 337.784 82.1351 337.724 82.3647 337.724 82.5844 337.724 82.7441 337.764 82.8838 337.834 83.0236 337.904 83.1534 338.004 83.2831 338.134 83.3929 338.253 83.5027 338.403 83.6026 338.573 83.6824 338.683 83.7323 338.793 83.7822 338.902 83.8322 338.703 83.9919 338.503 84.1516 338.293 84.3213 338.034 84.5409 337.784 84.7705 337.575 85.0001 337.355 85.2397 337.175 85.4892 337.036 85.7388 336.896 86.0083 336.816 86.2878 336.816 86.5773 336.816 86.9167 336.926 87.2162 337.145 87.4957 337.355 87.7552 337.684 87.9848 338.104 88.1745 338.523 88.3542 339.042 88.4939 339.671 88.5938 340.29 88.6936 341.029 88.7435 341.847 88.7435 342.775 88.7435 343.614 88.6536 344.353 88.464 345.091 88.2843 345.73 88.0148 346.239 87.6754 346.758 87.336 347.158 86.9167 347.437 86.4376 347.717 85.9484 347.857 85.3994 347.857 84.8104 347.857 84.471 347.807 84.1616 347.707 83.892 347.607 83.6125 347.427 83.373 347.178 83.1633 346.928 82.9637 346.599 82.804 346.199 82.6842 345.8 82.5644 345.291 82.4945 344.702 82.4745L341.019 82.3048C340.639 82.2849 340.34 82.225 340.14 82.1152 339.96 82.0154 339.871 81.8956 339.871 81.7358 339.871 81.5562 339.93 81.3665 340.05 81.1768 340.16 80.9971 340.3 80.8374 340.46 80.7077 340.649 80.7676 340.859 80.8175 341.108 80.8474 341.378 80.8873 341.637 80.9073 341.897 80.9073 342.586 80.9073 343.225 80.8175 343.794 80.6578 344.373 80.488 344.872 80.2485 345.281 79.929 345.7 79.6196 346.03 79.2402 346.259 78.801 346.499 78.3618 346.619 77.8727 346.619 77.3336 346.619 76.9942 346.559 76.6348 346.429 76.2855 346.329 76.0159 346.209 75.7564 346.07 75.5268L347.857 75.5268 347.857 74.4587 344.942 74.4587C344.822 74.3688 344.672 74.279 344.482 74.1991ZM339.002 85.2197C339.042 85.08 339.092 84.9302 339.172 84.7905 339.242 84.6507 339.342 84.511 339.441 84.3812 339.531 84.2614 339.651 84.1616 339.771 84.0617 339.911 84.0817 340.12 84.1017 340.41 84.1416 340.739 84.1815 341.108 84.2115 341.528 84.2414 341.947 84.2714 342.406 84.3013 342.895 84.3213 343.374 84.3412 343.864 84.3512 344.353 84.3512 344.732 84.3512 345.071 84.3812 345.361 84.4311 345.65 84.481 345.91 84.5609 346.11 84.6507 346.309 84.7505 346.459 84.8703 346.559 85.0101 346.659 85.1498 346.709 85.3195 346.709 85.5192 346.709 85.6989 346.619 85.8885 346.449 86.0782 346.269 86.2778 346 86.4575 345.65 86.6272 345.291 86.7969 344.852 86.9267 344.343 87.0365 343.834 87.1363 343.235 87.1862 342.586 87.1862 341.977 87.1862 341.428 87.1363 340.969 87.0565 340.509 86.9666 340.13 86.8468 339.821 86.6971 339.521 86.5474 339.302 86.3777 339.162 86.198 339.022 86.0183 338.952 85.8286 338.952 85.639 338.952 85.4992 338.972 85.3595 339.002 85.2197ZM341.039 74.6883C341.268 74.5585 341.538 74.4986 341.847 74.4986 342.167 74.4986 342.466 74.5785 342.755 74.7482 343.045 74.9179 343.305 75.1475 343.514 75.4469 343.734 75.7464 343.903 76.0958 344.043 76.5051 344.173 76.9144 344.233 77.3536 344.233 77.8327 344.233 78.1622 344.173 78.4716 344.063 78.7511 343.953 79.0306 343.804 79.2802 343.614 79.4898 343.424 79.6994 343.205 79.8691 342.965 79.9889 342.426 80.2485 341.807 80.2185 341.338 79.939 341.078 79.7893 340.849 79.5697 340.649 79.3001 340.46 79.0206 340.3 78.6912 340.2 78.3119 340.09 77.9326 340.04 77.5233 340.04 77.0841 340.04 76.7147 340.08 76.3753 340.15 76.0559 340.22 75.7464 340.33 75.4669 340.479 75.2373 340.629 74.9977 340.819 74.818 341.039 74.6883Z" fill="#A40000" transform="matrix(1 0 0 1.00256 253.069 90.581)"/><path d="M363.359 70.9948 361.592 70.9948 354.954 76.5849 354.954 70.9948 352.558 70.9948 352.558 84.1316 354.954 84.1316 354.954 77.7229 361.942 84.1017 361.972 84.1316 365.076 84.1316 356.771 76.545Z" fill="#A40000" transform="matrix(1 0 0 1.00256 253.069 90.581)"/><path d="M374.49 75.1974C374.01 74.7482 373.441 74.3888 372.793 74.1293 372.144 73.8697 371.425 73.74 370.656 73.74 369.878 73.74 369.149 73.8797 368.5 74.1592 367.851 74.4387 367.272 74.828 366.803 75.3172 366.324 75.8063 365.955 76.3853 365.685 77.0441 365.416 77.703 365.286 78.4117 365.286 79.1604 365.286 79.8691 365.426 80.5479 365.685 81.1768 365.955 81.8057 366.334 82.3548 366.803 82.8239 367.282 83.2931 367.851 83.6624 368.5 83.932 369.149 84.2015 369.878 84.3412 370.656 84.3412 371.425 84.3412 372.154 84.1915 372.802 83.902 373.451 83.6125 374.02 83.2033 374.5 82.6942 374.979 82.1851 375.348 81.5861 375.618 80.9173 375.887 80.2385 376.017 79.5098 376.017 78.7511 376.017 78.0523 375.877 77.3935 375.608 76.7946 375.348 76.1856 374.969 75.6466 374.49 75.1974ZM372.044 83.1034C371.734 83.2931 371.395 83.3929 371.036 83.3929 370.517 83.3929 370.047 83.2632 369.638 82.9936 369.229 82.7241 368.879 82.3647 368.59 81.9055 368.3 81.4464 368.081 80.8973 367.931 80.2784 367.781 79.6495 367.702 78.9707 367.702 78.262 367.702 77.7728 367.771 77.3136 367.911 76.8844 368.051 76.4552 368.241 76.0758 368.47 75.7564 368.7 75.437 368.959 75.1874 369.259 75.0077 369.548 74.828 369.858 74.7382 370.167 74.7382 370.786 74.7382 371.315 74.868 371.744 75.1275 372.174 75.387 372.523 75.7464 372.793 76.1956 373.062 76.6448 373.262 77.1939 373.382 77.8028 373.501 78.4217 373.561 79.1005 373.561 79.8092 373.561 80.2984 373.501 80.7676 373.371 81.1968 373.242 81.636 373.062 82.0154 372.842 82.3448 372.633 82.6442 372.353 82.9138 372.044 83.1034Z" fill="#A40000" transform="matrix(1 0 0 1.00256 253.069 90.581)"/><path d="M385.919 74.6683C385.68 74.3888 385.4 74.1592 385.091 73.9995 384.771 73.8398 384.432 73.7499 384.063 73.7499 383.384 73.7499 382.695 73.9196 382.036 74.259 381.447 74.5585 380.878 75.0077 380.319 75.5867L380.319 73.7499 379.64 73.7499 378.103 74.3389 378.103 84.1316 380.319 84.1316 380.319 76.6848C380.519 76.4851 380.739 76.3054 380.968 76.1457 381.208 75.976 381.437 75.8263 381.677 75.7065 381.906 75.5867 382.146 75.4869 382.376 75.417 382.845 75.2772 383.264 75.2872 383.593 75.437 383.773 75.5168 383.923 75.6366 384.053 75.7963 384.182 75.956 384.292 76.1557 384.362 76.3853 384.432 76.6249 384.472 76.9044 384.472 77.2238L384.472 84.1416 386.678 84.1416 386.678 76.8844C386.678 76.4552 386.608 76.0459 386.478 75.6765 386.339 75.2772 386.159 74.9478 385.919 74.6683Z" fill="#A40000" transform="matrix(1 0 0 1.00256 253.069 90.581)"/><path d="M399.066 74.4587 396.151 74.4587C396.032 74.3688 395.892 74.279 395.702 74.1991 395.502 74.1093 395.273 74.0394 395.023 73.9695 394.764 73.8997 394.494 73.8498 394.205 73.8098 393.915 73.7699 393.606 73.7499 393.306 73.7499 392.677 73.7499 392.089 73.8498 391.549 74.0394 391.01 74.2291 390.531 74.4986 390.132 74.828 389.723 75.1574 389.403 75.5567 389.174 76.006 388.944 76.4552 388.824 76.9343 388.824 77.4434 388.824 78.1322 389.024 78.7411 389.413 79.2702 389.753 79.7294 390.212 80.1087 390.791 80.3882 390.591 80.4781 390.411 80.5779 390.232 80.6977 389.982 80.8674 389.763 81.057 389.573 81.2567 389.383 81.4563 389.224 81.6759 389.114 81.9055 389.004 82.1351 388.944 82.3647 388.944 82.5844 388.944 82.7441 388.984 82.8838 389.054 83.0236 389.124 83.1534 389.224 83.2831 389.353 83.3929 389.473 83.5027 389.623 83.6026 389.793 83.6824 389.902 83.7323 390.012 83.7822 390.122 83.8322 389.922 83.9919 389.723 84.1516 389.513 84.3213 389.254 84.5409 389.004 84.7705 388.794 85.0001 388.575 85.2397 388.395 85.4892 388.255 85.7388 388.115 86.0083 388.036 86.2878 388.036 86.5773 388.036 86.9167 388.145 87.2162 388.365 87.4957 388.575 87.7552 388.904 87.9848 389.323 88.1745 389.743 88.3542 390.262 88.4939 390.891 88.5938 391.51 88.6936 392.248 88.7435 393.067 88.7435 393.995 88.7435 394.834 88.6536 395.572 88.464 396.311 88.2843 396.95 88.0148 397.459 87.6754 397.978 87.336 398.377 86.9167 398.657 86.4376 398.936 85.9484 399.076 85.3994 399.076 84.8104 399.076 84.471 399.026 84.1616 398.926 83.892 398.827 83.6125 398.647 83.373 398.397 83.1633 398.148 82.9637 397.818 82.804 397.419 82.6842 397.02 82.5644 396.511 82.4945 395.922 82.4745L392.238 82.3048C391.859 82.2849 391.559 82.225 391.36 82.1152 391.18 82.0154 391.09 81.8956 391.09 81.7358 391.09 81.5562 391.15 81.3665 391.27 81.1768 391.38 80.9971 391.52 80.8374 391.679 80.7077 391.869 80.7676 392.078 80.8175 392.328 80.8474 392.598 80.8873 392.857 80.9073 393.117 80.9073 393.805 80.9073 394.444 80.8175 395.013 80.6578 395.592 80.488 396.091 80.2485 396.501 79.929 396.92 79.6196 397.249 79.2402 397.479 78.801 397.719 78.3618 397.838 77.8727 397.838 77.3336 397.838 76.9942 397.778 76.6348 397.649 76.2855 397.549 76.0159 397.429 75.7564 397.289 75.5268L399.076 75.5268 399.076 74.4587ZM390.222 85.2197C390.262 85.08 390.312 84.9302 390.391 84.7905 390.461 84.6507 390.561 84.511 390.661 84.3812 390.751 84.2614 390.871 84.1616 390.99 84.0617 391.13 84.0817 391.34 84.1017 391.629 84.1416 391.959 84.1815 392.328 84.2115 392.747 84.2414 393.167 84.2714 393.626 84.3013 394.115 84.3213 394.594 84.3412 395.083 84.3512 395.572 84.3512 395.952 84.3512 396.291 84.3812 396.581 84.4311 396.87 84.481 397.13 84.5609 397.329 84.6507 397.529 84.7505 397.679 84.8703 397.778 85.0101 397.878 85.1498 397.928 85.3195 397.928 85.5192 397.928 85.6989 397.838 85.8885 397.669 86.0782 397.489 86.2778 397.219 86.4575 396.87 86.6272 396.511 86.7969 396.071 86.9267 395.562 87.0365 395.053 87.1363 394.454 87.1862 393.805 87.1862 393.197 87.1862 392.647 87.1363 392.188 87.0565 391.729 86.9666 391.35 86.8468 391.04 86.6971 390.741 86.5474 390.521 86.3777 390.382 86.198 390.242 86.0183 390.172 85.8286 390.172 85.639 390.172 85.4992 390.192 85.3595 390.222 85.2197ZM392.258 74.6883C392.488 74.5585 392.757 74.4986 393.067 74.4986 393.386 74.4986 393.686 74.5785 393.975 74.7482 394.265 74.9179 394.524 75.1475 394.734 75.4469 394.953 75.7464 395.123 76.0958 395.263 76.5051 395.393 76.9144 395.453 77.3536 395.453 77.8327 395.453 78.1622 395.393 78.4716 395.283 78.7511 395.173 79.0306 395.023 79.2802 394.834 79.4898 394.644 79.6994 394.424 79.8691 394.185 79.9889 393.646 80.2485 393.037 80.2185 392.558 79.939 392.298 79.7893 392.069 79.5697 391.869 79.3001 391.679 79.0206 391.52 78.6912 391.42 78.3119 391.31 77.9326 391.26 77.5233 391.26 77.0841 391.26 76.7147 391.3 76.3753 391.37 76.0559 391.44 75.7464 391.549 75.4669 391.699 75.2373 391.849 74.9977 392.029 74.818 392.258 74.6883Z" fill="#A40000" transform="matrix(1 0 0 1.00256 253.069 90.581)"/><path d="M118.451 31.4246C122.474 30.4164 126.128 34.0699 125.099 38.1028L110.715 94.2538C110.695 94.3336 110.655 94.4035 110.635 94.4734L110.645 94.4834 129.202 43.3535C131.688 36.4956 125.509 29.6677 118.451 31.4246Z" fill="#9F0B43" transform="matrix(1 0 0 1.00256 253.069 90.581)"/><path d="M118.411 31.4346 40.6383 51.6489C38.8415 52.1181 36.4457 53.7153 35.3177 55.1927L20.2942 75.0177C19.1662 76.5051 19.7352 78.0324 21.562 78.4317L38.532 82.1052C37.8632 81.666 37.2443 81.1668 36.6953 80.5879 35.6671 79.5098 34.9084 78.2121 34.3993 76.6947 33.8902 75.1874 33.7205 73.5203 33.8802 71.7035 34.04 69.8468 34.5091 68.1598 35.2977 66.6524 36.0764 65.1451 37.0846 63.8574 38.3224 62.7992 39.5602 61.7411 40.9677 60.9226 42.555 60.3536 44.1422 59.7846 45.8292 59.4951 47.606 59.4951 49.2531 59.4951 50.8503 59.7846 52.3876 60.3635 53.9249 60.9425 55.1427 61.791 56.0412 62.909L51.8885 66.7123C51.4293 65.9936 50.7804 65.4546 49.9519 65.1052 49.1234 64.7558 48.2649 64.5761 47.3665 64.5761 46.3782 64.5761 45.4598 64.7558 44.6013 65.1152 43.7429 65.4745 42.9942 65.9736 42.3453 66.6125 41.6965 67.2514 41.1674 68.0001 40.7681 68.8586 40.3588 69.727 40.1192 70.6654 40.0294 71.6936 39.9396 72.7417 40.0194 73.71 40.269 74.5785 40.5185 75.4569 40.9079 76.2056 41.4369 76.8245 41.966 77.4434 42.6148 77.9326 43.4035 78.2819 44.1821 78.6313 45.0605 78.811 46.0288 78.811 47.1469 78.811 48.1451 78.5914 49.0136 78.1522 49.882 77.7129 50.6107 77.1439 51.1698 76.4452L54.7734 80.1187C53.6354 81.2966 52.2778 82.235 50.7006 82.9238 49.5426 83.4329 48.2749 83.7523 46.8973 83.8821L75.4869 90.0612 76.3054 86.3178C76.565 86.4076 76.8445 86.4775 77.1639 86.5274 77.4734 86.5773 77.7629 86.6073 78.0324 86.6073 78.8709 86.6073 79.4898 86.4176 79.8991 86.0283 80.3084 85.6489 80.6677 85.0999 80.9971 84.4011L81.646 83.0535 76.1657 67.0218 82.1651 67.0218 84.9003 77.5233 85.0001 77.5233 89.1827 67.0218 94.9126 67.0218 85.9185 85.8286C85.5192 86.6771 85.08 87.4458 84.6108 88.1046 84.1416 88.7635 83.6125 89.3424 83.0136 89.8116 82.4146 90.2808 81.7259 90.6401 80.9472 90.8797 80.6677 90.9696 80.3683 91.0295 80.0588 91.0893L106.572 96.8192C108.389 97.2086 110.256 96.0606 110.715 94.2538L125.099 38.1028C126.138 34.0599 122.454 30.3864 118.411 31.4346ZM61.212 83.363 55.8016 83.363 57.2291 67.0218 62.6295 67.0218 61.212 83.363ZM63.1386 62.9689C62.939 63.3283 62.6994 63.6378 62.3999 63.9073 62.1005 64.1668 61.7511 64.3765 61.3518 64.5262 60.9525 64.6759 60.5432 64.7558 60.1339 64.7558 59.2555 64.7558 58.5467 64.4663 57.9977 63.8873 57.4587 63.3083 57.2191 62.6096 57.289 61.801 57.3189 61.4117 57.4287 61.0324 57.6184 60.673 57.808 60.3136 58.0476 60.0042 58.3571 59.7346 58.6665 59.4751 59.0159 59.2555 59.4052 59.0958 59.7945 58.9361 60.2038 58.8462 60.643 58.8462 61.0623 58.8462 61.4516 58.9261 61.821 59.0758 62.1903 59.2255 62.4998 59.4352 62.7593 59.6947 63.0089 59.9543 63.1985 60.2737 63.3383 60.6331 63.4681 60.9924 63.518 61.3817 63.488 61.801 63.4581 62.2103 63.3383 62.5996 63.1386 62.9689ZM75.387 71.0247 71.5338 71.0247 70.9848 77.2837C70.9149 78.0523 71.0148 78.6313 71.2743 79.0107 71.5338 79.4 72.0529 79.5896 72.8216 79.5896 73.0811 79.5896 73.3706 79.5697 73.6701 79.5198 73.9695 79.4798 74.2191 79.41 74.4287 79.3201L74.1492 83.2632C73.7599 83.3929 73.2808 83.5127 72.7018 83.6125 72.1228 83.7124 71.5438 83.7623 70.9748 83.7623 69.8768 83.7623 68.9684 83.6225 68.2396 83.353 67.5209 83.0835 66.9519 82.6842 66.5526 82.1651 66.1433 81.646 65.8738 81.0371 65.744 80.3183 65.6043 79.6096 65.5843 78.811 65.6542 77.9326L66.2631 71.0247 63.6278 71.0247 63.9772 67.0218 66.5826 67.0218 66.9619 62.7194 72.2626 62.7194 71.8832 67.0218 75.7364 67.0218 75.387 71.0247ZM115.486 74.5984C115.367 75.996 115.017 77.2737 114.438 78.4217 113.869 79.5697 113.101 80.5579 112.152 81.3765 111.204 82.195 110.086 82.8339 108.808 83.2931 107.53 83.7523 106.133 83.9819 104.616 83.9819 103.078 83.9819 101.711 83.7523 100.523 83.2931 99.3348 82.8339 98.3465 82.195 97.5579 81.3765 96.7693 80.5579 96.2003 79.5697 95.841 78.4217 95.4816 77.2737 95.3618 75.996 95.4816 74.5984L96.7494 60.124 102.349 60.124 101.122 74.1392C101.062 74.7781 101.092 75.3771 101.211 75.9461 101.331 76.5151 101.531 77.0242 101.84 77.4734 102.14 77.9226 102.559 78.2819 103.098 78.5415 103.637 78.801 104.296 78.9308 105.085 78.9308 105.873 78.9308 106.562 78.801 107.141 78.5415 107.72 78.2819 108.209 77.9226 108.598 77.4734 108.988 77.0242 109.287 76.5151 109.487 75.9461 109.687 75.3771 109.816 74.7781 109.876 74.1392L111.104 60.124 116.734 60.124 115.486 74.5984Z" fill="url(#fill0)" transform="matrix(1 0 0 1.00256 253.069 90.581)"/><path d="M75.4769 90.0911 76.2954 86.3477C76.555 86.4376 76.8345 86.5074 77.1539 86.5573 77.4634 86.6073 77.7529 86.6372 78.0224 86.6372 78.8609 86.6372 79.4798 86.4475 79.8891 86.0582 80.2984 85.6789 80.6578 85.1299 80.9872 84.4311L81.636 83.0835 76.1657 67.0218 82.1651 67.0218 84.9003 77.5233 85.0001 77.5233 89.1827 67.0218 94.9126 67.0218 85.9185 85.8286C85.5192 86.6771 85.08 87.4458 84.6108 88.1046 84.1416 88.7635 83.6125 89.3424 83.0136 89.8116 82.4146 90.2808 81.7259 90.6401 80.9472 90.8797 80.6677 90.9696 80.3683 91.0295 80.0588 91.0893L75.4769 90.0911ZM38.532 82.1052C37.8632 81.666 37.2443 81.1668 36.6953 80.5879 35.6671 79.5098 34.9084 78.2121 34.3993 76.6947 33.8902 75.1874 33.7205 73.5203 33.8802 71.7035 34.04 69.8468 34.5091 68.1598 35.2977 66.6524 36.0764 65.1451 37.0846 63.8574 38.3224 62.7992 39.5602 61.7411 40.9677 60.9226 42.555 60.3536 44.1422 59.7846 45.8292 59.4951 47.606 59.4951 49.2531 59.4951 50.8503 59.7846 52.3876 60.3635 53.9249 60.9425 55.1427 61.791 56.0412 62.909L51.8885 66.7123C51.4293 65.9936 50.7804 65.4546 49.9519 65.1052 49.1234 64.7558 48.2649 64.5761 47.3665 64.5761 46.3782 64.5761 45.4598 64.7558 44.6013 65.1152 43.7429 65.4745 42.9942 65.9736 42.3453 66.6125 41.6965 67.2514 41.1674 68.0001 40.7681 68.8586 40.3588 69.727 40.1192 70.6654 40.0294 71.6936 39.9396 72.7417 40.0194 73.71 40.269 74.5785 40.5185 75.4569 40.9079 76.2056 41.4369 76.8245 41.966 77.4434 42.6148 77.9326 43.4035 78.2819 44.1821 78.6313 45.0605 78.811 46.0288 78.811 47.1469 78.811 48.1451 78.5914 49.0136 78.1522 49.882 77.7129 50.6107 77.1439 51.1698 76.4452L54.7734 80.1187C53.6354 81.2966 52.2778 82.235 50.7006 82.9238 49.5426 83.4329 48.2749 83.7523 46.8973 83.8821L38.532 82.1052ZM61.212 83.363 55.8016 83.363 57.2291 67.0218 62.6295 67.0218 61.212 83.363ZM63.1386 62.9689C62.939 63.3283 62.6994 63.6378 62.3999 63.9073 62.1005 64.1668 61.7511 64.3765 61.3518 64.5262 60.9525 64.6759 60.5432 64.7558 60.1339 64.7558 59.2555 64.7558 58.5467 64.4663 57.9977 63.8873 57.4587 63.3083 57.2191 62.6096 57.289 61.801 57.3189 61.4117 57.4287 61.0324 57.6184 60.673 57.808 60.3136 58.0476 60.0042 58.3571 59.7346 58.6665 59.4751 59.0159 59.2555 59.4052 59.0958 59.7945 58.9361 60.2038 58.8462 60.643 58.8462 61.0623 58.8462 61.4516 58.9261 61.821 59.0758 62.1903 59.2255 62.4998 59.4352 62.7593 59.6947 63.0089 59.9543 63.1985 60.2737 63.3383 60.6331 63.4681 60.9924 63.518 61.3817 63.488 61.801 63.4581 62.2103 63.3383 62.5996 63.1386 62.9689ZM75.387 71.0247 71.5338 71.0247 70.9848 77.2837C70.9149 78.0523 71.0148 78.6313 71.2743 79.0107 71.5338 79.4 72.0529 79.5896 72.8216 79.5896 73.0811 79.5896 73.3706 79.5697 73.6701 79.5198 73.9695 79.4798 74.2191 79.41 74.4287 79.3201L74.1492 83.2632C73.7599 83.3929 73.2808 83.5127 72.7018 83.6125 72.1228 83.7124 71.5438 83.7623 70.9748 83.7623 69.8768 83.7623 68.9684 83.6225 68.2396 83.353 67.5209 83.0835 66.9519 82.6842 66.5526 82.1651 66.1433 81.646 65.8738 81.0371 65.744 80.3183 65.6043 79.6096 65.5843 78.811 65.6542 77.9326L66.2631 71.0247 63.6278 71.0247 63.9772 67.0218 66.5826 67.0218 66.9619 62.7194 72.2626 62.7194 71.8832 67.0218 75.7364 67.0218 75.387 71.0247ZM115.486 74.5984C115.367 75.996 115.017 77.2737 114.438 78.4217 113.869 79.5697 113.101 80.5579 112.152 81.3765 111.204 82.195 110.086 82.8339 108.808 83.2931 107.53 83.7523 106.133 83.9819 104.616 83.9819 103.078 83.9819 101.711 83.7523 100.523 83.2931 99.3348 82.8339 98.3465 82.195 97.5579 81.3765 96.7693 80.5579 96.2003 79.5697 95.841 78.4217 95.4816 77.2737 95.3618 75.996 95.4816 74.5984L96.7494 60.124 102.349 60.124 101.122 74.1392C101.062 74.7781 101.092 75.3771 101.211 75.9461 101.331 76.5151 101.531 77.0242 101.84 77.4734 102.14 77.9226 102.559 78.2819 103.098 78.5415 103.637 78.801 104.296 78.9308 105.085 78.9308 105.873 78.9308 106.562 78.801 107.141 78.5415 107.72 78.2819 108.209 77.9226 108.598 77.4734 108.988 77.0242 109.287 76.5151 109.487 75.9461 109.687 75.3771 109.816 74.7781 109.876 74.1392L111.104 60.124 116.734 60.124 115.486 74.5984Z" fill="#FFFFFF" transform="matrix(1 0 0 1.00256 253.069 90.581)"/></g></svg>